<svg width="1470" height="807" viewBox="0 0 1470 807" fill="none" xmlns="http://www.w3.org/2000/svg">
  <rect width="800" height="400" fill="white"/>

  <g id="ScalesOfJustice" transform="translate(350, 100)">
    <path d="M50 20V180M50 20L10 40M50 20L90 40" stroke="#2C3E50" stroke-width="4" stroke-linecap="round"/>
    <path d="M20 180H80" stroke="#2C3E50" stroke-width="6" stroke-linecap="round"/>
    <path d="M10 40L-10 90H30L10 40Z" fill="#D4AF37" stroke="#2C3E50" stroke-width="2"/>
    <path d="M90 40L70 90H110L90 40Z" fill="#D4AF37" stroke="#2C3E50" stroke-width="2"/>
    <rect x="35" y="150" width="30" height="10" rx="2" fill="#7E5109"/>
  </g>

  <path d="M200 60H600L620 40H180L200 60Z" fill="#2C3E50"/>
  <rect x="200" y="60" width="400" height="40" fill="#B8860B"/>
  <text x="400" y="87" font-family="Arial, sans-serif" font-size="20" font-weight="bold" fill="white" text-anchor="middle">PROFESSIONAL TORT DEFENSE COUNSEL</text>

  <text x="400" y="125" font-family="Georgia, serif" font-size="14" font-style="italic" fill="#555" text-anchor="middle">Diligence • Advocacy • Resolution</text>

  <g transform="translate(50, 250)">
    <rect width="220" height="100" rx="10" stroke="#E0E0E0" stroke-width="2"/>
    <text x="110" y="30" font-family="Arial, sans-serif" font-size="16" font-weight="bold" fill="#2C3E50" text-anchor="middle">DEFENSE STRATEGY</text>
    <text x="110" y="60" font-family="Arial, sans-serif" font-size="12" fill="#666" text-anchor="middle">Vigorous Representation</text>
    <text x="110" y="80" font-family="Arial, sans-serif" font-size="12" fill="#666" text-anchor="middle">Liability Protection</text>
  </g>

  <g transform="translate(530, 250)">
    <rect width="220" height="100" rx="10" stroke="#E0E0E0" stroke-width="2"/>
    <text x="110" y="30" font-family="Arial, sans-serif" font-size="16" font-weight="bold" fill="#2C3E50" text-anchor="middle">PRACTICE AREAS</text>
    <text x="110" y="55" font-family="Arial, sans-serif" font-size="12" fill="#666" text-anchor="middle">Premises Liability</text>
    <text x="110" y="73" font-family="Arial, sans-serif" font-size="12" fill="#666" text-anchor="middle">Product Defense</text>
    <text x="110" y="91" font-family="Arial, sans-serif" font-size="12" fill="#666" text-anchor="middle">Professional Liability</text>
  </g>

  <line x1="100" y1="380" x2="700" y2="380" stroke="#D4AF37" stroke-width="2" stroke-dasharray="5,5"/>
</svg>
